<svg width="55" height="55" viewBox="0 0 55 55" fill="none" xmlns="http://www.w3.org/2000/svg">
<path d="M41.1054 12.7488C37.3174 8.96072 32.2794 6.875 26.9271 6.875C21.5671 6.875 16.5368 8.96072 12.7488 12.7488C8.96072 16.5368 6.875 21.5747 6.875 26.9271C6.875 32.2794 8.96072 37.3174 12.7488 41.1054C16.5368 44.8934 21.5747 46.9792 26.9271 46.9792C32.2794 46.9792 37.3174 44.8934 41.1054 41.1054C44.8934 37.3174 46.9792 32.2794 46.9792 26.9271C46.9792 21.5747 44.8934 16.5368 41.1054 12.7488ZM43.8352 26.9271C43.8352 36.2515 36.2515 43.8352 26.9271 43.8352C17.6027 43.8352 10.0189 36.2515 10.0189 26.9271C10.0189 17.6027 17.6027 10.0189 26.9271 10.0189C36.2515 10.0189 43.8352 17.6027 43.8352 26.9271Z" fill="#ffffff"/>
<path d="M34.3821 20.3321L24.521 30.1856L19.4753 25.14C18.8619 24.5266 17.865 24.5266 17.2516 25.14C16.9525 25.4391 16.7915 25.8302 16.7915 26.2519C16.7915 26.6737 16.9525 27.0647 17.2516 27.3638L23.4091 33.5213C23.7081 33.8203 24.0992 33.9814 24.521 33.9814C24.9427 33.9814 25.3338 33.8203 25.6328 33.5213L36.6059 22.5482C36.9049 22.2492 37.066 21.8581 37.066 21.4363C37.066 21.0146 36.9049 20.6235 36.6059 20.3245C35.9924 19.7187 34.9956 19.7187 34.3821 20.3321Z" fill="#ffffff"/>
</svg>
