<svg width="55" height="55" viewBox="0 0 55 55" fill="none" xmlns="http://www.w3.org/2000/svg">
<path d="M41.1415 12.8585C37.3633 9.08031 32.3384 7 27 7C21.6539 7 16.6367 9.08031 12.8585 12.8585C9.08031 16.6367 7 21.6616 7 27C7 32.3384 9.08031 37.3633 12.8585 41.1415C16.6367 44.9197 21.6616 47 27 47C32.3384 47 37.3633 44.9197 41.1415 41.1415C44.9197 37.3633 47 32.3384 47 27C47 21.6616 44.9197 16.6367 41.1415 12.8585ZM43.8642 27C43.8642 36.3002 36.3002 43.8642 27 43.8642C17.6998 43.8642 10.1358 36.3002 10.1358 27C10.1358 17.6998 17.6998 10.1358 27 10.1358C36.3002 10.1358 43.8642 17.6998 43.8642 27Z" fill="#DA7163"/>
<rect x="24.5835" y="18.083" width="4.25" height="12.75" rx="2.125" fill="#DA7163"/>
<rect x="24.5835" y="32.25" width="4.25" height="4.25" rx="2.125" fill="#DA7163"/>
</svg>
