<svg width="24" height="24" viewBox="0 0 24 24" fill="none" xmlns="http://www.w3.org/2000/svg">
<path d="M20.0027 20.2645C19.8582 18.6193 19.2413 17.0773 18.2243 15.7932C17.3629 14.7098 16.2681 13.8728 15.0232 13.3512C16.5793 12.2849 17.5241 10.4505 17.474 8.50148C17.4018 5.53205 15.0954 3.11868 12.2167 3.00403C10.7161 2.9467 9.29343 3.50275 8.20972 4.58046C7.12601 5.65817 6.5258 7.10275 6.5258 8.65052C6.5258 10.5709 7.44834 12.3193 8.97665 13.3569C7.73733 13.8785 6.63695 14.7098 5.7811 15.7989C4.76408 17.083 4.15275 18.625 4.0027 20.2703C3.98603 20.4594 4.04716 20.6486 4.16942 20.7862C4.29169 20.9238 4.46953 21.004 4.64737 21.004H4.84744C5.18644 21.004 5.46432 20.7403 5.49211 20.3906C5.80888 16.9168 8.6043 14.297 11.9944 14.297C15.3844 14.297 18.1743 16.9168 18.4966 20.3906C18.53 20.7403 18.8078 21.004 19.1413 21.004H19.3414C19.5248 21.004 19.697 20.9238 19.8193 20.7862C19.9582 20.6429 20.0194 20.4537 20.0027 20.2645ZM15.9791 8.64479C15.9791 10.9034 14.1951 12.7435 12.0055 12.7435C9.81583 12.7435 8.03188 10.9034 8.03188 8.64479C8.03188 6.38619 9.81583 4.54606 12.0055 4.54606C14.1951 4.54606 15.9791 6.38619 15.9791 8.64479Z" fill="white"/>
</svg>
