<svg width="24" height="24" viewBox="0 0 24 24" fill="none" xmlns="http://www.w3.org/2000/svg">
<g clip-path="url(#clip0)">
<path d="M23.763 11.8197L24 11.502L23.763 11.1844C23.7235 11.1314 22.7708 9.86079 20.9195 8.59015C18.4512 6.89596 15.5484 6 12.5222 6C9.49603 6 6.58832 6.89189 4.11011 8.58608C2.24404 9.85672 1.28139 11.1233 1.2419 11.1803L1 11.502L1.2419 11.8238C1.28139 11.8767 2.24404 13.1474 4.11011 14.418C6.58832 16.1081 9.49603 17.0041 12.5222 17.0041C15.5484 17.0041 18.4512 16.1081 20.9146 14.418C22.7658 13.1433 23.7235 11.8726 23.763 11.8197ZM19.9272 13.5017C17.7107 15.0126 15.2176 15.7782 12.5222 15.7782C9.82185 15.7782 7.32389 15.0126 5.09251 13.5017C3.93733 12.7197 3.15733 11.9297 2.77227 11.502C3.15733 11.0744 3.93733 10.2843 5.09251 9.50241C7.32389 7.98741 9.82185 7.22177 12.5222 7.22177C15.2226 7.22177 17.7107 7.98741 19.9272 9.49833C21.0775 10.2803 21.8525 11.0744 22.2277 11.502C21.8525 11.9256 21.0775 12.7197 19.9272 13.5017Z" fill="#f9843e"/>
<path d="M12.4978 7.8291C10.0442 7.8291 8.0498 9.47442 8.0498 11.4985C8.0498 13.5225 10.0442 15.1679 12.4978 15.1679C14.9513 15.1679 16.9457 13.5225 16.9457 11.4985C16.9457 9.47442 14.9513 7.8291 12.4978 7.8291ZM12.4978 13.9502C10.8588 13.9502 9.53081 12.8506 9.53081 11.5026C9.53081 10.1545 10.8637 9.05494 12.4978 9.05494C14.1318 9.05494 15.4647 10.1545 15.4647 11.5026C15.4647 12.8506 14.1318 13.9502 12.4978 13.9502Z" fill="#f9843e"/>
</g>
<defs>
<clipPath id="clip0">
<rect width="23" height="11" fill="#f9843e" transform="matrix(-1 0 0 1 24 6)"/>
</clipPath>
</defs>
</svg>
