<?xml version="1.0" encoding="utf-8"?>
<!-- Svg Vector Icons : http://www.onlinewebfonts.com/icon -->
<!DOCTYPE svg PUBLIC "-//W3C//DTD SVG 1.1//EN" "http://www.w3.org/Graphics/SVG/1.1/DTD/svg11.dtd">
<svg version="1.1" xmlns="http://www.w3.org/2000/svg" xmlns:xlink="http://www.w3.org/1999/xlink" x="0px" y="0px" viewBox="0 0 1000 1000" enable-background="new 0 0 1000 1000" xml:space="preserve">
<metadata> Svg Vector Icons : http://www.onlinewebfonts.com/icon </metadata>
<g><path d="M716.7,78c-78.1,0-157.9,38.3-216.7,127.4v0.1C441.3,116.4,361.5,78.1,283.3,78.1C144,78.1,10,199.8,10,372.7c0,73.1,26.4,137.6,65.5,195.2H77c-17.3,22.8-27.8,50.9-27.8,81.7c0,75.2,60.9,136.1,136.1,136.1c75.2,0,136.1-60.9,136.1-136.1s-60.9-136.1-136.1-136.1c-16.8,0-32.7,3.4-47.6,9c-28-42.8-46-89.6-46-141.2c0-61.5,23.2-118.5,65.4-160.4c39.3-39,91.7-61.4,143.7-61.4c55,0,105.7,45,145.3,96.7c-32.7,18.8-54.9,53.6-54.9,94c0,60.2,48.7,108.9,108.9,108.9s108.9-48.7,108.9-108.9c0-40.4-22.3-75.3-55-94.1c39.6-51.7,90.3-96.7,145.4-96.7c52,0,104.4,22.4,143.7,61.4c42.1,41.9,65.4,98.9,65.4,160.4c0,142.9-134.6,252.3-244.3,337.6l-0.7,0.5c-43.4,33.8-72.6,54.7-97.8,73.7c-25.9,19.5-65.4,46.7-65.5,46.6l0,0c0,0-34.9,21.8-33.2,44.8c2.1,28.1,14.3,35.4,33.2,37.4c30.9,3.3,90.2-34,217.8-136.1C840.4,687.5,990,555.4,990,372.7C990,199.7,856,78,716.7,78z M185.3,595.2c30.1,0,54.4,24.4,54.4,54.4c0,30.1-24.4,54.4-54.4,54.4c-30.1,0-54.4-24.4-54.4-54.4C130.8,619.6,155.1,595.2,185.3,595.2z M500,377.4c-15,0-27.2-12.2-27.2-27.2S485,323,500,323c15,0,27.2,12.2,27.2,27.2S515,377.4,500,377.4z"/></g>
</svg>